#!OML:ASF E:\Mandelcareful walks\Project 1\Capture day 1\Session 1\Subject1.ASF
:FULLY-SPECIFIED
:DEGREES
850
root 5.56785 16.9328 -1.15207 -123.447 -85.4187 126.778
lowerback 0.899023 0.181413 -4.02278
upperback 3.76905 0.21556 0.488355
thorax 3.36269 -0.0482791 2.7611
lowerneck -19.0596 0.309328 -4.04783
upperneck 32.6989 1.99013 -2.5625
head 14.4616 -0.319759 -0.0676971
rclavicle 7.55382e-015 1.19271e-015
rhumerus -25.9609 -5.79602 -82.9181
rradius 28.1667
rwrist -8.07005
rhand -8.26285 -31.3421
rfingers 7.12502
rthumb 17.6559 -60.5605
lclavicle 7.55382e-015 1.19271e-015
lhumerus -25.1174 -1.15977 91.0943
lradius 26.5869
lwrist 7.97791
lhand -21.2257 -12.5647
lfingers 7.12502
lthumb 5.15646 17.3526
rfemur -5.39798 -5.0282 11.2042
rtibia 17.5826
rfoot -13.7081 -17.8782
rtoes -0.215045
lfemur -7.79814 2.1526 -16.6698
ltibia 23.2743
lfoot -17.1104 14.6925
ltoes 2.0596
851
root 5.57781 16.9332 -1.19394 -122.281 -85.5358 125.615
lowerback 0.777438 0.173889 -3.93072
upperback 3.84128 0.211727 0.416921
thorax 3.50663 -0.0508141 2.636
lowerneck -19.2133 0.224792 -3.73877
upperneck 32.9 1.79983 -2.66502
head 14.5914 -0.385085 -0.199905
rclavicle 1.98785e-016 -8.74653e-015
rhumerus -25.8788 -5.99038 -83.0642
rradius 28.1314
rwrist -7.82813
rhand -8.38793 -30.7773
rfingers 7.12502
rthumb 17.5355 -60.0064
lclavicle 1.98785e-016 -8.74653e-015
lhumerus -25.1068 -1.47404 90.9558
lradius 26.5317
lwrist 8.52381
lhand -21.2896 -12.7746
lfingers 7.12502
lthumb 5.09476 17.1442
rfemur -5.52664 -4.92381 11.4284
rtibia 17.7389
rfoot -13.7851 -18.0691
rtoes -0.298888
lfemur -7.75952 2.07461 -16.4529
ltibia 23.0285
lfoot -16.8682 14.7026
ltoes 1.82227
852
root 5.5699 16.9339 -1.2298 -117.871 -85.515 121.112
lowerback 0.475191 0.113388 -4.05265
upperback 4.06199 0.148331 0.331725
thorax 3.91292 -0.0988276 2.61586
lowerneck -19.3944 0.195562 -3.46531
upperneck 32.997 1.78475 -2.9855
head 14.6847 -0.407297 -0.38384
rclavicle -2.28602e-015 -1.74931e-014
rhumerus -25.5002 -6.11578 -83.0903
rradius 27.9737
rwrist -7.8889
rhand -8.33983 -30.7253
rfingers 7.12502
rthumb 17.5818 -59.9503
lclavicle -2.28602e-015 -1.74931e-014
lhumerus -24.9587 -1.67342 90.8972
lradius 26.5228
lwrist 8.93362
lhand -21.1198 -12.3739
lfingers 7.12502
lthumb 5.25864 17.5408
rfemur -5.3971 -5.17262 11.2912
rtibia 17.8068
rfoot -13.8881 -18.0767
rtoes -0.39744
lfemur -7.57222 1.84765 -16.5524
ltibia 22.8746
lfoot -16.8156 14.689
ltoes 1.34438
853
root 5.56253 16.9354 -1.26403 -113.982 -85.5519 117.122
lowerback 0.578065 0.0428674 -4.07346
upperback 4.04304 0.050543 0.293115
thorax 3.84236 -0.145815 2.5846
lowerneck -19.3564 0.0933988 -3.62385
upperneck 33.1171 1.67822 -2.97668
head 14.731 -0.478024 -0.374643
rclavicle -1.09332e-015 4.37326e-015
rhumerus -25.5626 -5.99594 -83.0998
rradius 27.9858
rwrist -8.0445
rhand -8.29956 -31.1598
rfingers 7.12502
rthumb 17.6206 -60.3813
lclavicle -1.09332e-015 4.37326e-015
lhumerus -25.1779 -1.29509 90.7821
lradius 26.4564
lwrist 8.55559
lhand -21 -12.2527
lfingers 7.12502
lthumb 5.37432 17.6592
rfemur -5.23293 -5.47007 11.2586
rtibia 17.9253
rfoot -14.0252 -18.0475
rtoes -0.268697
lfemur -7.36837 1.60098 -16.557
ltibia 22.6502
lfoot -16.7007 14.7328
ltoes 0.747436
854
root 5.56966 16.9357 -1.29347 -109.681 -85.5724 112.832
lowerback 0.793088 0.0245848 -3.97414
upperback 3.98493 0.0156102 0.246677
thorax 3.66194 -0.154223 2.47977
lowerneck -19.4671 -0.0774999 -4.09723
upperneck 33.0941 1.43034 -2.45782
head 14.7357 -0.564357 -0.121781
rclavicle -2.5842e-015 -1.11319e-014
rhumerus -25.6578 -6.12772 -83.0119
rradius 28.0813
rwrist -8.05756
rhand -8.0899 -31.5556
rfingers 7.12502
rthumb 17.8223 -60.7589
lclavicle -2.5842e-015 -1.11319e-014
lhumerus -25.2728 -1.05267 90.7815
lradius 26.3006
lwrist 8.16517
lhand -21.0815 -12.7089
lfingers 7.12502
lthumb 5.29567 17.205
rfemur -5.1837 -5.97833 11.2186
rtibia 18.0042
rfoot -14.1574 -17.8043
rtoes 0.00381396
lfemur -7.37121 1.34153 -16.5833
ltibia 22.4134
lfoot -16.4387 14.8034
ltoes 0.0874373
855
root 5.57161 16.9369 -1.33031 -107.599 -85.5542 110.847
lowerback 0.939562 0.101199 -3.88841
upperback 3.78531 0.11323 0.172584
thorax 3.36395 -0.0904481 2.35722
lowerneck -19.3886 -0.173245 -4.12698
upperneck 33.3819 1.29428 -2.49582
head 14.8526 -0.645523 -0.16229
rclavicle -1.98785e-015 -3.97569e-016
rhumerus -26.0092 -6.39958 -82.9115
rradius 28.1909
rwrist -8.05011
rhand -7.94293 -31.6939
rfingers 7.12502
rthumb 17.9638 -60.8843
lclavicle -1.98785e-015 -3.97569e-016
lhumerus -25.5955 -1.25699 90.7954
lradius 26.225
lwrist 8.13499
lhand -21.0389 -12.8198
lfingers 7.12502
lthumb 5.33683 17.093
rfemur -5.26785 -6.14255 11.2908
rtibia 18.0691
rfoot -14.3482 -17.7139
rtoes 0.483224
lfemur -7.44059 1.28101 -16.5204
ltibia 22.2419
lfoot -16.2275 14.7897
ltoes -0.56732
856
root 5.56144 16.9358 -1.36996 -106.014 -85.6192 109.284
lowerback 0.458543 0.108327 -3.78298
upperback 3.97112 0.146579 0.075555
thorax 3.8267 -0.0814126 2.1996
lowerneck -19.3818 -0.296408 -4.0173
upperneck 33.35 1.07675 -2.50572
head 14.8376 -0.721814 -0.223771
rclavicle -9.93923e-016 -4.77083e-015
rhumerus -25.8369 -6.56155 -83.0831
rradius 28.2389
rwrist -8.01973
rhand -8.06868 -31.5543
rfingers 7.12502
rthumb 17.8428 -60.7557
lclavicle -9.93923e-016 -4.77083e-015
lhumerus -25.4271 -1.16964 90.5498
lradius 26.2059
lwrist 7.87927
lhand -20.7643 -12.5156
lfingers 7.12502
lthumb 5.60196 17.3903
rfemur -5.23679 -6.22615 11.455
rtibia 18.1408
rfoot -14.5369 -17.7007
rtoes 0.833126
lfemur -7.38046 1.19627 -16.3503
ltibia 22.0989
lfoot -16.1285 14.7732
ltoes -0.985827
857
root 5.56992 16.935 -1.41236 -105.405 -85.7583 108.711
lowerback 0.304305 0.072602 -3.74942
upperback 4.05352 0.104604 0.0999885
thorax 4.00267 -0.106679 2.20507
lowerneck -19.2983 -0.354932 -3.88147
upperneck 33.2462 0.993654 -2.67275
head 14.7737 -0.759379 -0.329275
rclavicle -2.98177e-016 7.95139e-016
rhumerus -25.6273 -6.58344 -83.22
rradius 28.1025
rwrist -7.74449
rhand -8.30034 -31.3245
rfingers 7.12502
rthumb 17.6198 -60.5461
lclavicle -2.98177e-016 7.95139e-016
lhumerus -25.3119 -0.823732 90.3505
lradius 26.169
lwrist 7.8367
lhand -20.6053 -12.3976
lfingers 7.12502
lthumb 5.75539 17.5043
rfemur -5.29967 -5.92639 11.7943
rtibia 18.1614
rfoot -14.6788 -18.0189
rtoes 1.18936
lfemur -7.39815 0.97051 -16.0606
ltibia 21.9431
lfoot -16.0535 14.9121
ltoes -1.12701
858
root 5.56908 16.9349 -1.44577 -101.778 -85.7666 105.059
lowerback 0.171958 0.0611534 -3.67594
upperback 4.14346 0.0947177 0.0668758
thorax 4.1719 -0.113478 2.12946
lowerneck -19.237 -0.47966 -4.04289
upperneck 33.1366 0.836243 -2.58542
head 14.7096 -0.827972 -0.290735
rclavicle -8.94531e-016 3.57812e-015
rhumerus -25.4071 -6.79735 -83.1574
rradius 27.8693
rwrist -7.56083
rhand -8.64475 -31.191
rfingers 7.12502
rthumb 17.2884 -60.442
lclavicle -8.94531e-016 3.57812e-015
lhumerus -25.1102 -0.967126 90.3975
lradius 25.8339
lwrist 8.08217
lhand -20.7175 -12.6498
lfingers 7.12502
lthumb 5.6471 17.255
rfemur -5.15774 -6.10042 11.839
rtibia 18.1043
rfoot -14.7844 -18.0665
rtoes 1.26478
lfemur -7.2789 0.706688 -16.0201
ltibia 21.7758
lfoot -16.0861 14.8966
ltoes -1.66391
859
root 5.56095 16.936 -1.47441 -98.5825 -85.7927 101.792
lowerback 0.223032 0.0971757 -3.459
upperback 4.11228 0.138646 -0.00422309
thorax 4.10673 -0.0805491 1.93579
lowerneck -19.3433 -0.621388 -4.14703
upperneck 33.3533 0.651361 -2.53872
head 14.835 -0.921473 -0.291599
rclavicle 2.48481e-015 -2.78299e-015
rhumerus -25.4707 -7.01574 -83.0695
rradius 27.743
rwrist -7.58502
rhand -8.6213 -31.0905
rfingers 7.12502
rthumb 17.3109 -60.3395
lclavicle 2.48481e-015 -2.78299e-015
lhumerus -25.2247 -1.01212 90.3994
lradius 25.601
lwrist 7.82846
lhand -20.7599 -12.7982
lfingers 7.12502
lthumb 5.6062 17.1076
rfemur -4.92794 -6.37964 11.884
rtibia 18.0183
rfoot -14.8381 -17.9956
rtoes 1.40998
lfemur -7.08764 0.454598 -15.9601
ltibia 21.6089
lfoot -16.1367 14.9119
ltoes -2.18777
